<?xml version="1.0" standalone="no"?>
<!DOCTYPE svg PUBLIC "-//W3C//DTD SVG 20010904//EN"
 "http://www.w3.org/TR/2001/REC-SVG-20010904/DTD/svg10.dtd">
<svg version="1.0" xmlns="http://www.w3.org/2000/svg"
 width="64.000000pt" height="64.000000pt" viewBox="0 0 64.000000 64.000000"
 preserveAspectRatio="xMidYMid meet">

<g transform="translate(0.000000,64.000000) scale(0.100000,-0.100000)"
fill="#000000" stroke="none">
<path d="M379 625 c-53 -29 -62 -111 -16 -152 69 -63 177 -2 160 89 -11 58
-91 94 -144 63z"/>
<path d="M256 399 c-65 -88 -77 -121 -45 -127 14 -3 180 142 178 156 0 4 -15
19 -33 34 l-32 27 -68 -90z"/>
<path d="M147 245 c-52 -81 -32 -143 42 -131 19 3 50 18 70 34 76 61 132 76
154 41 16 -26 -1 -68 -48 -118 -42 -45 -56 -71 -37 -71 10 0 83 76 106 110 25
38 21 85 -10 109 -15 12 -35 21 -46 21 -28 0 -85 -26 -126 -59 -46 -35 -79
-46 -97 -31 -18 15 -2 63 31 89 22 17 22 19 6 34 -16 15 -20 13 -45 -28z"/>
</g>
</svg>
