<?xml version="1.0" standalone="no"?>
<!DOCTYPE svg PUBLIC "-//W3C//DTD SVG 20010904//EN"
 "http://www.w3.org/TR/2001/REC-SVG-20010904/DTD/svg10.dtd">
<svg version="1.0" xmlns="http://www.w3.org/2000/svg"
 width="64.000000pt" height="64.000000pt" viewBox="0 0 64.000000 64.000000"
 preserveAspectRatio="xMidYMid meet">

<g transform="translate(0.000000,64.000000) scale(0.100000,-0.100000)"
fill="#000000" stroke="none">
<path d="M120 535 l0 -76 -33 6 c-41 8 -87 -24 -87 -61 0 -38 45 -77 78 -69
49 12 57 28 60 130 2 52 6 95 8 95 2 0 13 -5 24 -12 10 -7 23 -8 27 -4 4 5 2
11 -6 14 -8 3 -25 16 -38 28 -13 13 -26 24 -28 24 -3 0 -5 -34 -5 -75z"/>
<path d="M452 494 c-79 -12 -150 -28 -158 -35 -11 -9 -14 -41 -14 -146 l0
-134 -22 15 c-59 42 -138 1 -138 -71 1 -86 91 -124 151 -64 l29 29 0 131 0
130 33 6 c133 23 273 42 280 38 4 -2 7 -37 7 -77 l0 -74 -37 13 c-68 24 -123
-15 -123 -86 0 -52 48 -94 99 -85 19 3 44 15 55 26 19 19 21 34 24 201 3 180
-2 211 -32 208 -6 -1 -75 -12 -154 -25z"/>
</g>
</svg>
