<?xml version="1.0" standalone="no"?>
<!DOCTYPE svg PUBLIC "-//W3C//DTD SVG 20010904//EN"
 "http://www.w3.org/TR/2001/REC-SVG-20010904/DTD/svg10.dtd">
<svg version="1.0" xmlns="http://www.w3.org/2000/svg"
 width="64.000000pt" height="64.000000pt" viewBox="0 0 64.000000 64.000000"
 preserveAspectRatio="xMidYMid meet">

<g transform="translate(0.000000,64.000000) scale(0.100000,-0.100000)"
fill="#000000" stroke="none">
<path d="M220 583 c-61 -22 -142 -104 -163 -167 -63 -184 72 -376 263 -376
151 0 280 129 280 280 0 75 -27 139 -84 196 -80 80 -189 104 -296 67z m265
-94 c19 -17 35 -37 35 -44 0 -7 -15 -22 -32 -34 l-33 -20 -27 26 -27 26 22 38
c12 22 23 39 24 39 1 0 18 -14 38 -31z m-94 -108 c61 -62 14 -161 -76 -161
-42 0 -85 50 -85 98 0 87 98 126 161 63z m-151 -191 c0 -3 -9 -20 -20 -38 -17
-27 -23 -31 -39 -22 -20 10 -61 57 -61 69 0 4 17 17 38 29 l37 21 22 -27 c12
-15 22 -29 23 -32z"/>
<path d="M311 340 c-19 -11 -9 -45 14 -45 13 0 21 8 23 21 3 23 -17 37 -37 24z"/>
</g>
</svg>
